<?xml version="1.0" encoding="UTF-8"?>
<svg id="target" viewBox="0 0 230 65" version="1.1" xmlns="http://www.w3.org/2000/svg" xmlns:xlink="http://www.w3.org/1999/xlink">
    <!-- Generator: Sketch 45.1 (43504) - http://www.bohemiancoding.com/sketch -->
    <title>btn-available</title>
    <desc>Created with Sketch.</desc>
    <defs></defs>
    <g id="Symbols" stroke="none" stroke-width="1" fill="none" fill-rule="evenodd">
        <g id="btn-available">
            <rect id="bg" fill="#111112" x="0" y="0" width="230" height="65" rx="6"></rect>
            <path d="M63.2373047,15.1357422 L66.7988281,15.1357422 C69.7246094,15.1357422 71.4404297,16.9335938 71.4404297,20.0371094 C71.4404297,23.1884766 69.7382813,25 66.7988281,25 L63.2373047,25 L63.2373047,15.1357422 Z M64.7685547,16.5302734 L64.7685547,23.6054688 L66.6279297,23.6054688 C68.6923828,23.6054688 69.8818359,22.3203125 69.8818359,20.0576172 C69.8818359,17.8291016 68.671875,16.5302734 66.6279297,16.5302734 L64.7685547,16.5302734 Z M77.8785157,23.8378906 C79.1500001,23.8378906 79.8746095,22.8945313 79.8746095,21.2744141 C79.8746095,19.6611328 79.1500001,18.7177734 77.8785157,18.7177734 C76.6001954,18.7177734 75.882422,19.6611328 75.882422,21.2744141 C75.882422,22.9013672 76.6001954,23.8378906 77.8785157,23.8378906 Z M77.8785157,25.1435547 C75.6978517,25.1435547 74.3648438,23.6875 74.3648438,21.2744141 C74.3648438,18.875 75.7046876,17.4121094 77.8785157,17.4121094 C80.0455079,17.4121094 81.3853517,18.875 81.3853517,21.2744141 C81.3853517,23.6875 80.0523438,25.1435547 77.8785157,25.1435547 Z M93.9552736,17.5556641 L92.4855471,17.5556641 L91.1593752,23.2363281 L91.0431643,23.2363281 L89.5119143,17.5556641 L88.1037111,17.5556641 L86.5724611,23.2363281 L86.4630861,23.2363281 L85.1300783,17.5556641 L83.6398439,17.5556641 L85.6906252,25 L87.2013674,25 L88.7326174,19.5175781 L88.8488283,19.5175781 L90.3869143,25 L91.9113283,25 L93.9552736,17.5556641 Z M96.8728518,25 L98.3425784,25 L98.3425784,20.6455078 C98.3425784,19.4833984 99.0330081,18.7587891 100.119922,18.7587891 C101.206836,18.7587891 101.726367,19.3535156 101.726367,20.5498047 L101.726367,25 L103.196094,25 L103.196094,20.1806641 C103.196094,18.4101563 102.280078,17.4121094 100.618946,17.4121094 C99.4978518,17.4121094 98.7595706,17.9111328 98.3972659,18.7382813 L98.2878909,18.7382813 L98.2878909,17.5556641 L96.8728518,17.5556641 L96.8728518,25 Z M106.728907,25 L108.198633,25 L108.198633,14.6503906 L106.728907,14.6503906 L106.728907,25 Z M114.944336,23.8378906 C116.215821,23.8378906 116.94043,22.8945313 116.94043,21.2744141 C116.94043,19.6611328 116.215821,18.7177734 114.944336,18.7177734 C113.666016,18.7177734 112.948243,19.6611328 112.948243,21.2744141 C112.948243,22.9013672 113.666016,23.8378906 114.944336,23.8378906 Z M114.944336,25.1435547 C112.763672,25.1435547 111.430665,23.6875 111.430665,21.2744141 C111.430665,18.875 112.770508,17.4121094 114.944336,17.4121094 C117.111329,17.4121094 118.451172,18.875 118.451172,21.2744141 C118.451172,23.6875 117.118165,25.1435547 114.944336,25.1435547 Z M124.048438,23.8857422 C125.15586,23.8857422 125.976172,23.1816406 125.976172,22.2587891 L125.976172,21.6367188 L124.157813,21.7529297 C123.132422,21.8212891 122.667579,22.1699219 122.667579,22.8261719 C122.667579,23.4960938 123.248633,23.8857422 124.048438,23.8857422 Z M123.672462,25.1230469 C122.236915,25.1230469 121.191016,24.2548828 121.191016,22.8945313 C121.191016,21.5546875 122.189063,20.7822266 123.959571,20.6728516 L125.976172,20.5566406 L125.976172,19.9140625 C125.976172,19.1279297 125.456641,18.6835938 124.451758,18.6835938 C123.631446,18.6835938 123.064063,18.984375 122.900001,19.5107422 L121.478126,19.5107422 C121.628516,18.2324219 122.831641,17.4121094 124.520118,17.4121094 C126.386329,17.4121094 127.439063,18.3417969 127.439063,19.9140625 L127.439063,25 L126.024024,25 L126.024024,23.9541016 L125.907813,23.9541016 C125.463477,24.6992188 124.650001,25.1230469 123.672462,25.1230469 Z M133.651563,25.1230469 C131.758008,25.1230469 130.561719,23.6328125 130.561719,21.2744141 C130.561719,18.9228516 131.77168,17.4326172 133.651563,17.4326172 C134.670118,17.4326172 135.531446,17.9179688 135.934766,18.7382813 L136.044141,18.7382813 L136.044141,14.6503906 L137.513868,14.6503906 L137.513868,25 L136.105665,25 L136.105665,23.8242188 L135.989454,23.8242188 C135.545118,24.6376953 134.676954,25.1230469 133.651563,25.1230469 Z M134.068555,18.7519531 C132.831251,18.7519531 132.079298,19.7089844 132.079298,21.2744141 C132.079298,22.8535156 132.824415,23.8037109 134.068555,23.8037109 C135.30586,23.8037109 136.071485,22.8398438 136.071485,21.28125 C136.071485,19.7294922 135.299024,18.7519531 134.068555,18.7519531 Z M149.487696,23.8378906 C150.759181,23.8378906 151.48379,22.8945313 151.48379,21.2744141 C151.48379,19.6611328 150.759181,18.7177734 149.487696,18.7177734 C148.209376,18.7177734 147.491602,19.6611328 147.491602,21.2744141 C147.491602,22.9013672 148.209376,23.8378906 149.487696,23.8378906 Z M149.487696,25.1435547 C147.307032,25.1435547 145.974024,23.6875 145.974024,21.2744141 C145.974024,18.875 147.313868,17.4121094 149.487696,17.4121094 C151.654688,17.4121094 152.994532,18.875 152.994532,21.2744141 C152.994532,23.6875 151.661524,25.1435547 149.487696,25.1435547 Z M156.158204,25 L157.627931,25 L157.627931,20.6455078 C157.627931,19.4833984 158.31836,18.7587891 159.405274,18.7587891 C160.492188,18.7587891 161.01172,19.3535156 161.01172,20.5498047 L161.01172,25 L162.481446,25 L162.481446,20.1806641 C162.481446,18.4101563 161.565431,17.4121094 159.904298,17.4121094 C158.783204,17.4121094 158.044923,17.9111328 157.682618,18.7382813 L157.573243,18.7382813 L157.573243,17.5556641 L156.158204,17.5556641 L156.158204,25 Z M171.693556,15.703125 L171.693556,17.5898438 L170.510939,17.5898438 L170.510939,18.8271484 L171.693556,18.8271484 L171.693556,23.03125 C171.693556,24.4667969 172.34297,25.0410156 173.976759,25.0410156 C174.263868,25.0410156 174.537306,25.0068359 174.776564,24.9658203 L174.776564,23.7421875 C174.571486,23.7626953 174.441603,23.7763672 174.216017,23.7763672 C173.484571,23.7763672 173.163282,23.4345703 173.163282,22.6552734 L173.163282,18.8271484 L174.776564,18.8271484 L174.776564,17.5898438 L173.163282,17.5898438 L173.163282,15.703125 L171.693556,15.703125 Z M177.974415,25 L179.444142,25 L179.444142,20.6523438 C179.444142,19.5244141 180.114064,18.765625 181.317189,18.765625 C182.356251,18.765625 182.909962,19.3671875 182.909962,20.5566406 L182.909962,25 L184.379689,25 L184.379689,20.1943359 C184.379689,18.4238281 183.40215,17.4189453 181.816212,17.4189453 C180.695118,17.4189453 179.908986,17.9179688 179.546681,18.7519531 L179.43047,18.7519531 L179.43047,14.6503906 L177.974415,14.6503906 L177.974415,25 Z M190.899806,18.6630859 C189.812892,18.6630859 189.054103,19.4287109 188.972072,20.5908203 L192.731837,20.5908203 C192.697658,19.421875 191.98672,18.6630859 190.899806,18.6630859 Z M192.725001,22.9902344 L194.14004,22.9902344 C193.805079,24.3232422 192.615626,25.1435547 190.913478,25.1435547 C188.780665,25.1435547 187.475001,23.6806641 187.475001,21.3017578 C187.475001,18.9228516 188.808009,17.4121094 190.906642,17.4121094 C192.977931,17.4121094 194.228908,18.8271484 194.228908,21.1650391 L194.228908,21.6777344 L188.972072,21.6777344 L188.972072,21.7597656 C189.019923,23.0654297 189.778712,23.8925781 190.954494,23.8925781 C191.843165,23.8925781 192.451564,23.5712891 192.725001,22.9902344 Z" id="Download-on-the" fill="#FFFFFF"></path>
            <path d="M66.9707031,48 L66.9707031,39.1035156 L67.1464844,39.1035156 L70.2910156,46.9160156 L72.5078125,46.9160156 L75.6425781,39.1035156 L75.8183594,39.1035156 L75.8183594,48 L79.1289063,48 L79.1289063,33.9082031 L74.9003906,33.9082031 L71.4921875,42.5214844 L71.3066406,42.5214844 L67.8886719,33.9082031 L63.6601563,33.9082031 L63.6601563,48 L66.9707031,48 Z M86.3554688,45.7539062 C87.4492188,45.7539062 88.2988281,45.03125 88.2988281,44.09375 L88.2988281,43.3808594 L86.4726563,43.4980469 C85.4472656,43.5761719 84.9101563,43.9765625 84.9101563,44.6308594 C84.9101563,45.3242188 85.4863281,45.7539062 86.3554688,45.7539062 Z M85.0957031,48.1660156 C83.0058594,48.1660156 81.5800781,46.8671875 81.5800781,44.875 C81.5800781,42.8925781 83.1230469,41.7402344 85.9257813,41.5742188 L88.2988281,41.4375 L88.2988281,40.5878906 C88.2988281,39.8554688 87.7519531,39.4160156 86.7949219,39.4160156 C85.8867188,39.4160156 85.3007813,39.71875 85.0761719,40.2949219 L81.9707031,40.2949219 C82.1269531,38.1855469 84.0507813,36.8769531 86.9902344,36.8769531 C89.9882813,36.8769531 91.6972656,38.2441406 91.6972656,40.5878906 L91.6972656,48 L88.3378906,48 L88.3378906,46.6523438 L88.1523438,46.6523438 C87.6640625,47.5800781 86.4726563,48.1660156 85.0957031,48.1660156 Z M104.285156,41.1542969 C104.070313,38.4882812 102.283203,36.8769531 99.2851563,36.8769531 C95.7011719,36.8769531 93.7871094,38.859375 93.7871094,42.5507812 C93.7871094,46.2617188 95.7011719,48.2539062 99.2851563,48.2539062 C102.234375,48.2539062 104.080078,46.6523438 104.285156,44.0546875 L101.111328,44.0546875 C100.955078,45.0703125 100.320313,45.5976562 99.2851563,45.5976562 C97.9472656,45.5976562 97.2539063,44.5820312 97.2539063,42.5507812 C97.2539063,40.5390625 97.9375,39.5332031 99.2851563,39.5332031 C100.339844,39.5332031 100.964844,40.1386719 101.111328,41.1542969 L104.285156,41.1542969 Z M120.574219,48 L119.695313,44.9042969 L115.095703,44.9042969 L114.1875,48 L110.632813,48 L115.359375,33.9082031 L119.744141,33.9082031 L124.480469,48 L120.574219,48 Z M117.322266,37.0820312 L115.779297,42.3261719 L119.021484,42.3261719 L117.507813,37.0820312 L117.322266,37.0820312 Z M133.318359,36.9648438 C136.0625,36.9648438 137.693359,39.0058594 137.693359,42.5605469 C137.693359,46.1054688 136.101563,48.1660156 133.396484,48.1660156 C131.824219,48.1660156 130.671875,47.4824219 130.164063,46.3300781 L129.978516,46.3300781 L129.978516,51.59375 L126.53125,51.59375 L126.53125,37.1308594 L129.890625,37.1308594 L129.890625,38.8984375 L130.076172,38.8984375 C130.613281,37.6875 131.814453,36.9648438 133.318359,36.9648438 Z M132.058594,45.4511719 C133.376953,45.4511719 134.148438,44.3671875 134.148438,42.5605469 C134.148438,40.7734375 133.367188,39.6796875 132.058594,39.6796875 C130.759766,39.6796875 129.958984,40.7734375 129.958984,42.5703125 C129.958984,44.3769531 130.75,45.4511719 132.058594,45.4511719 Z M146.638672,36.9648438 C149.382813,36.9648438 151.013672,39.0058594 151.013672,42.5605469 C151.013672,46.1054688 149.421875,48.1660156 146.716797,48.1660156 C145.144531,48.1660156 143.992188,47.4824219 143.484375,46.3300781 L143.298828,46.3300781 L143.298828,51.59375 L139.851563,51.59375 L139.851563,37.1308594 L143.210938,37.1308594 L143.210938,38.8984375 L143.396484,38.8984375 C143.933594,37.6875 145.134766,36.9648438 146.638672,36.9648438 Z M145.378906,45.4511719 C146.697266,45.4511719 147.46875,44.3671875 147.46875,42.5605469 C147.46875,40.7734375 146.6875,39.6796875 145.378906,39.6796875 C144.080078,39.6796875 143.279297,40.7734375 143.279297,42.5703125 C143.279297,44.3769531 144.070313,45.4511719 145.378906,45.4511719 Z M157.771484,43.9863281 C157.830078,46.7011719 160.076172,48.3808594 163.640625,48.3808594 C167.332031,48.3808594 169.578125,46.6035156 169.578125,43.6640625 C169.578125,41.4277344 168.328125,40.1679688 165.544922,39.6308594 L163.728516,39.2792969 C162.244141,38.9863281 161.619141,38.5371094 161.619141,37.765625 C161.619141,36.828125 162.449219,36.2324219 163.708984,36.2324219 C164.96875,36.2324219 165.916016,36.9257812 165.994141,37.921875 L169.304688,37.921875 C169.246094,35.3144531 166.960938,33.5273438 163.660156,33.5273438 C160.261719,33.5273438 158.054688,35.3339844 158.054688,38.0878906 C158.054688,40.3046875 159.382813,41.7109375 161.960938,42.1992188 L163.816406,42.5703125 C165.427734,42.8925781 166.042969,43.3125 166.042969,44.09375 C166.042969,45.0214844 165.125,45.6660156 163.787109,45.6660156 C162.302734,45.6660156 161.277344,45.0117188 161.189453,43.9863281 L157.771484,43.9863281 Z M172.830078,34.640625 L172.830078,37.2773438 L171.160156,37.2773438 L171.160156,39.8457031 L172.830078,39.8457031 L172.830078,45.0214844 C172.830078,47.1503906 173.953125,48.0195312 176.814453,48.0195312 C177.46875,48.0195312 178.103516,47.9609375 178.464844,47.8828125 L178.464844,45.421875 C178.210938,45.4511719 177.996094,45.4707031 177.595703,45.4707031 C176.697266,45.4707031 176.277344,45.0703125 176.277344,44.25 L176.277344,39.8457031 L178.464844,39.8457031 L178.464844,37.2773438 L176.277344,37.2773438 L176.277344,34.640625 L172.830078,34.640625 Z M185.740234,45.6171875 C187.009766,45.6171875 187.732422,44.4941406 187.732422,42.5605469 C187.732422,40.6660156 186.990234,39.5136719 185.740234,39.5136719 C184.490234,39.5136719 183.748047,40.6660156 183.748047,42.5605469 C183.748047,44.5039062 184.470703,45.6171875 185.740234,45.6171875 Z M185.740234,48.2539062 C182.263672,48.2539062 180.203125,46.1347656 180.203125,42.5605469 C180.203125,39.0449219 182.322266,36.8769531 185.740234,36.8769531 C189.177734,36.8769531 191.277344,39.0253906 191.277344,42.5605469 C191.277344,46.1445312 189.226563,48.2539062 185.740234,48.2539062 Z M193.435547,48 L196.882813,48 L196.882813,42.2480469 C196.882813,40.734375 197.898438,39.875 199.421875,39.875 C199.949219,39.875 200.642578,39.9628906 200.90625,40.0703125 L200.90625,37.1308594 C200.652344,37.0234375 200.115234,36.9648438 199.65625,36.9648438 C198.298828,36.9648438 197.244141,37.8242188 196.980469,38.9179688 L196.794922,38.9179688 L196.794922,37.1308594 L193.435547,37.1308594 L193.435547,48 Z M207.605469,39.328125 C206.472656,39.328125 205.681641,40.1191406 205.59375,41.3496094 L209.539063,41.3496094 C209.480469,40.0800781 208.757813,39.328125 207.605469,39.328125 Z M209.666016,44.796875 L212.820313,44.796875 C212.439453,46.9160156 210.447266,48.2539062 207.634766,48.2539062 C204.167969,48.2539062 202.175781,46.203125 202.175781,42.6386719 C202.175781,39.0546875 204.216797,36.8769531 207.585938,36.8769531 C210.935547,36.8769531 212.888672,38.9082031 212.888672,42.375 L212.888672,43.3320312 L205.574219,43.3320312 L205.574219,43.5078125 C205.603516,44.9238281 206.414063,45.8027344 207.732422,45.8027344 C208.738281,45.8027344 209.431641,45.4316406 209.666016,44.796875 Z" id="Mac-App-Store" fill="#FFFFFF"></path>
            <path d="M41.0568738,32.6091792 C41.1045706,38.1925993 45.9407403,40.0383221 46,40.0585571 C45.9710928,40.1886394 45.2426321,42.7223529 43.4287072,45.2950911 C41.9139714,47.5599679 40.3269677,49.7742572 37.8062625,49.8147273 C35.3578251,49.8710962 34.5339707,48.3737048 31.7256391,48.3737048 C28.891291,48.3737048 28.0139584,49.7742572 25.6652508,49.8710962 C23.2645102,49.9592631 21.4303503,47.4530114 19.8606909,45.2083696 C16.7228175,40.6251377 14.2801616,32.2926457 17.555344,26.6225042 C19.1423477,23.8416344 22.0359555,22.0508351 25.1290228,22.0031383 C27.532654,21.9539961 29.7628422,23.626276 31.2399986,23.626276 C32.6882479,23.626276 35.445992,21.6258997 38.2890122,21.925089 C39.4785423,21.9597776 42.863572,22.3948305 45.0475087,25.5789553 C44.871175,25.6844665 41.0149584,27.9507887 41.0568738,32.6091792 Z M36.4317265,18.9100711 C35.1135595,20.4652768 33.0047814,21.6548069 30.9509269,21.5015989 C30.6820902,19.4029383 31.7227484,17.1713047 32.8877074,15.809777 C34.204429,14.2646887 36.4909862,13.0809401 38.3193647,13 C38.5592943,15.181046 37.6949699,17.3302942 36.4317265,18.9100711 Z" id="apple" fill="#FFFFFF"></path>
        </g>
    </g>
</svg>